<svg xmlns="http://www.w3.org/2000/svg" xmlns:xlink="http://www.w3.org/1999/xlink" width="1366" height="768" viewBox="0 0 1366 768">
  <defs>
    <clipPath id="clip-path">
      <rect id="Rectangle_1" data-name="Rectangle 1" width="343" height="197" transform="translate(0 0)" fill="rgba(110,109,109,0.48)"/>
    </clipPath>
    <clipPath id="clip-path-2">
      <rect id="Rectangle_2" data-name="Rectangle 2" width="290" height="172" transform="translate(0 0.096)" fill="rgba(116,115,115,0.41)"/>
    </clipPath>
    <clipPath id="clip-background">
      <rect width="1366" height="768"/>
    </clipPath>
  </defs>
  <g id="background" clip-path="url(#clip-background)">
    <rect width="1366" height="768" fill="#fff"/>
    <g id="Groupe_1" data-name="Groupe 1" transform="translate(0 142.914)">
      <path id="Tracé_1" data-name="Tracé 1" d="M0-54.137s8.739-156.448,78.211,0C91.758-23.629,135.176,61.587,180.869,71.853c30.1,6.762,48.121,4.153,74.671-42.919,9.08-16.1,104.958-76.3,145.4-44.379,9.707,7.66-219.875,181.425-133.787,171.752,35.554-3.995,119.411,18,238.946-34.612C586.907,86.13,608.665,75.141,645.487,60.777c13.257-5.172,53.64-29.542,73.011-31.843,6.065-.721-58.077,18,0,0s-88.007,162.72-81.308,286.591,341,101.414,273.792,139.834S497.8,577.194,368.375,469.2,0,524.415,0,524.415Z" fill="rgba(105,194,233,0.33)"/>
      <path id="Tracé_2" data-name="Tracé 2" d="M0-54.137s8.739-156.448,78.211,0C91.758-23.629,135.176,61.587,180.869,71.853c30.1,6.762,48.121,4.153,74.671-42.919,9.08-16.1,104.958-76.3,145.4-44.379,9.707,7.66-219.875,181.425-133.787,171.752,35.554-3.995,119.411,18,238.946-34.612C586.907,86.13,608.665,75.141,645.487,60.777c13.257-5.172,53.64-29.542,73.011-31.843,6.065-.721-58.077,18,0,0s-88.007,162.72-81.308,286.591,341,101.414,273.792,139.834S497.8,577.194,368.375,469.2,0,524.415,0,524.415Z" transform="translate(0 29.335)" fill="#6fa4db"/>
      <g id="Groupe_de_masques_1" data-name="Groupe de masques 1" transform="translate(214 340.086)" clip-path="url(#clip-path)">
        <g id="chat-right-dots" transform="translate(68.342 -0.671)">
          <path id="Tracé_3" data-name="Tracé 3" d="M25.764,12.882A12.882,12.882,0,0,0,12.882,25.764V128.818A12.882,12.882,0,0,0,25.764,141.7H149.249a25.76,25.76,0,0,1,18.211,7.545l25.768,25.768V25.764a12.882,12.882,0,0,0-12.882-12.882ZM180.345,0a25.764,25.764,0,0,1,25.764,25.764v164.8a6.441,6.441,0,0,1-11,4.547l-36.752-36.752a12.882,12.882,0,0,0-9.107-3.774H25.764A25.764,25.764,0,0,1,0,128.818V25.764A25.764,25.764,0,0,1,25.764,0Z" fill="rgba(110,109,109,0.48)"/>
          <path id="Tracé_4" data-name="Tracé 4" d="M64.409,77.291A12.882,12.882,0,1,1,51.527,64.409,12.882,12.882,0,0,1,64.409,77.291Zm51.527,0a12.882,12.882,0,1,1-12.882-12.882A12.882,12.882,0,0,1,115.936,77.291Zm51.527,0a12.882,12.882,0,1,1-12.882-12.882A12.882,12.882,0,0,1,167.463,77.291Z" fill="rgba(110,109,109,0.48)"/>
        </g>
      </g>
      <g id="Groupe_de_masques_2" data-name="Groupe de masques 2" transform="translate(493 44.99)" clip-path="url(#clip-path-2)">
        <g id="chat-square-heart" transform="translate(55.046 0.336)">
          <path id="Tracé_5" data-name="Tracé 5" d="M157.047,11.218a11.218,11.218,0,0,1,11.218,11.218v89.741a11.218,11.218,0,0,1-11.218,11.218H129a22.435,22.435,0,0,0-17.948,8.974L89.741,160.782,68.428,132.368a22.435,22.435,0,0,0-17.948-8.974H22.435a11.218,11.218,0,0,1-11.218-11.218V22.435A11.218,11.218,0,0,1,22.435,11.218ZM22.435,0A22.435,22.435,0,0,0,0,22.435v89.741a22.435,22.435,0,0,0,22.435,22.435H50.479a11.218,11.218,0,0,1,8.974,4.487l21.314,28.414a11.218,11.218,0,0,0,17.948,0L120.029,139.1A11.218,11.218,0,0,1,129,134.612h28.044a22.435,22.435,0,0,0,22.435-22.435V22.435A22.435,22.435,0,0,0,157.047,0Z" fill="rgba(116,115,115,0.41)"/>
          <path id="Tracé_6" data-name="Tracé 6" d="M89.741,44.792c18.666-19.193,65.343,14.392,0,57.569C24.4,59.173,71.075,25.6,89.741,44.792Z" fill="rgba(116,115,115,0.41)"/>
        </g>
      </g>
    </g>
  </g>
</svg>
